<?xml version="1.0" standalone="no"?>
<!DOCTYPE svg PUBLIC "-//W3C//DTD SVG 20010904//EN"
 "http://www.w3.org/TR/2001/REC-SVG-20010904/DTD/svg10.dtd">
<svg version="1.0" xmlns="http://www.w3.org/2000/svg"
 width="512.000000pt" height="512.000000pt" viewBox="0 0 512.000000 512.000000"
 preserveAspectRatio="xMidYMid meet">
<metadata>
Created by potrace 1.14, written by Peter Selinger 2001-2017
</metadata>
<g transform="translate(0.000000,512.000000) scale(0.100000,-0.100000)"
fill="#000000" stroke="none">
<path d="M2335 5109 c-60 -7 -110 -16 -209 -35 -175 -34 -459 -141 -600 -227
-354 -215 -588 -447 -785 -779 -37 -62 -121 -236 -121 -251 0 -7 -4 -17 -9
-22 -13 -14 -68 -183 -91 -280 -45 -188 -58 -312 -55 -530 2 -104 5 -199 8
-210 2 -11 8 -45 12 -75 24 -187 118 -473 213 -650 54 -101 97 -170 104 -170
4 0 8 -6 8 -13 0 -7 13 -28 30 -47 16 -19 29 -39 30 -43 0 -5 6 -14 12 -22 7
-7 29 -32 48 -56 32 -40 94 -110 145 -164 11 -12 63 -68 115 -125 110 -119
112 -121 246 -266 56 -60 113 -122 128 -139 15 -16 74 -79 130 -140 57 -60
127 -137 157 -169 30 -33 69 -75 88 -95 18 -20 72 -78 120 -130 129 -140 134
-146 255 -275 61 -65 120 -129 131 -140 36 -39 53 -47 104 -53 59 -6 97 13
157 80 30 33 159 174 274 297 21 23 233 253 245 266 6 6 57 62 115 124 58 62
116 125 130 140 14 15 70 77 126 136 55 60 113 123 128 139 42 46 208 224 236
255 116 125 203 221 222 246 12 16 25 31 29 34 4 3 45 62 92 131 156 232 266
495 317 755 29 153 35 220 35 414 0 241 -15 361 -71 562 -131 473 -439 902
-844 1175 -246 166 -537 286 -790 328 -19 3 -60 10 -90 16 -68 14 -430 19
-525 8z"/>
</g>
</svg>
